<?xml version="1.0"?>
<svg xmlns="http://www.w3.org/2000/svg" xmlns:xlink="http://www.w3.org/1999/xlink" xmlns:svgjs="http://svgjs.com/svgjs" version="1.1" width="512" height="512" x="0" y="0" viewBox="0 0 512 512" style="enable-background:new 0 0 512 512" xml:space="preserve" class=""><g><g xmlns="http://www.w3.org/2000/svg"><path d="m457 261h-27l-8-6c-13.776-10.332-22-26.78-22-44 0-99.252-80.748-180-180-180s-180 80.748-180 180c0 17.22-8.224 33.668-22.001 44.001l-11.999 9.001c-3.263 2.447-5.389 6.118-5.887 10.167s.674 8.125 3.246 11.291c5.268 6.483 10.908 12.678 16.866 18.561-13.129 17.886-20.225 39.409-20.225 61.979v70c0 24.813 20.187 45 45 45h80c8.284 0 15-6.716 15-15s-6.716-15-15-15h-15v-20h170v5c0 24.813 20.187 45 45 45h80c8.284 0 15-6.716 15-15s-6.716-15-15-15h-15v-40h47c41.355 0 75-33.645 75-75v-20c0-30.327-24.673-55-55-55zm-53.947 17.279c-26.793 28.259-60.799 47.857-98.082 56.951-3.546-16.109-5.581-36.688-5.581-57.783 0-5.536-.056-11.042-.161-16.515 25.522-6.616 50.144-16.444 73.346-29.318 4.623 18.345 15.295 34.937 30.478 46.665zm-232.377-11.142c16.217 2.555 32.698 3.863 49.324 3.863s33.107-1.308 49.324-3.863c.042 3.424.066 6.861.066 10.311 0 22.758 2.119 44.67 5.948 62.705-6.088.551-12.229.847-18.414.847h-73.848c-6.185 0-12.326-.295-18.414-.847 3.828-18.035 5.948-39.947 5.948-62.706 0-3.45.024-6.886.066-10.31zm172.757-141.264c14.54 21.018 23.857 45.908 26.056 72.786-22.372 13.815-46.383 24.376-71.418 31.493-1.522-26.947-4.345-52.627-8.354-76.086 19.097-6.722 37.209-16.196 53.716-28.193zm-59.721-1.546c-1.182-5-2.423-9.862-3.73-14.557-4.631-16.647-9.837-30.669-15.595-42.065 22.59 7.012 42.907 19.233 59.55 35.249-12.489 8.834-26.02 15.997-40.225 21.373zm-32.632-6.517c1.321 4.748 2.572 9.685 3.758 14.775-11.409 2.253-23.074 3.415-34.838 3.415s-23.429-1.162-34.838-3.415c1.187-5.091 2.437-10.027 3.758-14.775 12.902-46.373 27.117-56.81 31.08-56.81s18.178 10.437 31.08 56.81zm-91.062-8.04c-1.306 4.695-2.547 9.558-3.73 14.557-14.206-5.376-27.736-12.539-40.225-21.374 16.642-16.015 36.959-28.236 59.55-35.249-5.758 11.397-10.964 25.418-15.595 42.066zm-9.736 44.296c-4.008 23.459-6.831 49.139-8.354 76.086-25.035-7.117-49.046-17.678-71.418-31.493 2.199-26.878 11.516-51.768 26.056-72.786 16.508 11.997 34.62 21.471 53.716 28.193zm29.069 7.948c13.312 2.63 26.923 3.986 40.649 3.986s27.337-1.356 40.649-3.986c3.803 23.008 6.421 48.297 7.743 74.874-15.883 2.72-32.061 4.112-48.392 4.112s-32.509-1.392-48.392-4.112c1.322-26.577 3.94-51.866 7.743-74.874zm-111.926 69.601c23.201 12.874 47.824 22.702 73.346 29.318-.105 5.473-.161 10.98-.161 16.516 0 21.095-2.036 41.674-5.581 57.782-37.282-9.094-71.289-28.691-98.082-56.951 15.183-11.729 25.855-28.321 30.478-46.665zm414.575 104.385c0 24.813-20.187 45-45 45h-62c-8.284 0-15 6.716-15 15v55h-35c-8.271 0-15-6.729-15-15v-20c0-8.284-6.716-15-15-15h-200c-8.284 0-15 6.716-15 15v35h-35c-8.271 0-15-6.729-15-15v-70c0-15.275 4.567-29.868 13.023-42.227 12.642 9.609 26.244 17.949 40.535 24.751 30.893 14.704 65.305 22.476 99.518 22.476h73.848c34.213 0 68.626-7.772 99.518-22.476 28.713-13.667 54.689-33.477 75.536-57.524h25.022c13.785 0 25 11.215 25 25z" fill="#ffffff" data-original="#000000" style="" class=""/></g></g></svg>
